<mxfile host="Electron" modified="2023-10-07T19:12:05.546Z" agent="Mozilla/5.0 (Windows NT 10.0; Win64; x64) AppleWebKit/537.36 (KHTML, like Gecko) draw.io/21.4.0 Chrome/112.0.5615.204 Electron/24.5.1 Safari/537.36" etag="LuatQWKg5bz_FFVjUusE" version="21.4.0" type="device">
  <diagram name="Page-1" id="1hm8HmTSw6B5gK0yuC_L">
    <mxGraphModel dx="1290" dy="621" grid="1" gridSize="10" guides="1" tooltips="1" connect="1" arrows="1" fold="1" page="1" pageScale="1" pageWidth="850" pageHeight="1100" math="0" shadow="0">
      <root>
        <mxCell id="0" />
        <mxCell id="1" parent="0" />
        <mxCell id="__wWAyPd4UwDDS3I6Whu-1" value="Bắt đầu" style="ellipse;whiteSpace=wrap;html=1;fontSize=13;" parent="1" vertex="1">
          <mxGeometry x="276.25" y="80" width="120" height="50" as="geometry" />
        </mxCell>
        <mxCell id="__wWAyPd4UwDDS3I6Whu-2" value="Tài khoản&lt;br style=&quot;font-size: 13px;&quot;&gt;và mật khẩu" style="shape=parallelogram;perimeter=parallelogramPerimeter;whiteSpace=wrap;html=1;fixedSize=1;fontSize=13;" parent="1" vertex="1">
          <mxGeometry x="266.25" y="160" width="145" height="50" as="geometry" />
        </mxCell>
        <mxCell id="__wWAyPd4UwDDS3I6Whu-3" value="" style="endArrow=classic;html=1;rounded=0;exitX=0.5;exitY=1;exitDx=0;exitDy=0;entryX=0.503;entryY=0;entryDx=0;entryDy=0;entryPerimeter=0;fontSize=13;" parent="1" target="__wWAyPd4UwDDS3I6Whu-2" edge="1">
          <mxGeometry width="50" height="50" relative="1" as="geometry">
            <mxPoint x="338.75" y="130" as="sourcePoint" />
            <mxPoint x="341.75" y="230" as="targetPoint" />
          </mxGeometry>
        </mxCell>
        <mxCell id="__wWAyPd4UwDDS3I6Whu-4" value="Kiểm tra loại&lt;br style=&quot;font-size: 13px;&quot;&gt;tài khoản Admin" style="rhombus;whiteSpace=wrap;html=1;fontSize=13;" parent="1" vertex="1">
          <mxGeometry x="260" y="363" width="160" height="80" as="geometry" />
        </mxCell>
        <mxCell id="__wWAyPd4UwDDS3I6Whu-7" value="Kiểm tra tài &lt;br style=&quot;font-size: 13px;&quot;&gt;khoản khách &lt;br style=&quot;font-size: 13px;&quot;&gt;hàng" style="rhombus;whiteSpace=wrap;html=1;fontSize=13;" parent="1" vertex="1">
          <mxGeometry x="460" y="453" width="140" height="70" as="geometry" />
        </mxCell>
        <mxCell id="__wWAyPd4UwDDS3I6Whu-8" value="" style="endArrow=classic;html=1;rounded=0;exitX=0.5;exitY=1;exitDx=0;exitDy=0;fontSize=13;" parent="1" source="__wWAyPd4UwDDS3I6Whu-2" edge="1">
          <mxGeometry width="50" height="50" relative="1" as="geometry">
            <mxPoint x="468.75" y="310" as="sourcePoint" />
            <mxPoint x="338.75" y="240" as="targetPoint" />
          </mxGeometry>
        </mxCell>
        <mxCell id="__wWAyPd4UwDDS3I6Whu-10" value="Chuyển hướng trang Admin" style="rounded=0;whiteSpace=wrap;html=1;fontSize=13;" parent="1" vertex="1">
          <mxGeometry x="120" y="453" width="100" height="60" as="geometry" />
        </mxCell>
        <mxCell id="__wWAyPd4UwDDS3I6Whu-11" value="" style="endArrow=classic;html=1;rounded=0;entryX=0.5;entryY=0;entryDx=0;entryDy=0;exitX=0;exitY=0.5;exitDx=0;exitDy=0;fontSize=13;" parent="1" source="__wWAyPd4UwDDS3I6Whu-4" target="__wWAyPd4UwDDS3I6Whu-10" edge="1">
          <mxGeometry width="50" height="50" relative="1" as="geometry">
            <mxPoint x="270" y="413" as="sourcePoint" />
            <mxPoint x="130" y="423" as="targetPoint" />
            <Array as="points">
              <mxPoint x="170" y="403" />
            </Array>
          </mxGeometry>
        </mxCell>
        <mxCell id="__wWAyPd4UwDDS3I6Whu-12" value="Đúng" style="text;html=1;strokeColor=none;fillColor=none;align=center;verticalAlign=middle;whiteSpace=wrap;rounded=0;fontSize=13;" parent="1" vertex="1">
          <mxGeometry x="350" y="333" width="60" height="30" as="geometry" />
        </mxCell>
        <mxCell id="__wWAyPd4UwDDS3I6Whu-13" value="Sai" style="text;html=1;strokeColor=none;fillColor=none;align=center;verticalAlign=middle;whiteSpace=wrap;rounded=0;fontSize=13;" parent="1" vertex="1">
          <mxGeometry x="430" y="363" width="60" height="30" as="geometry" />
        </mxCell>
        <mxCell id="__wWAyPd4UwDDS3I6Whu-14" value="" style="endArrow=classic;html=1;rounded=0;exitX=1;exitY=0.5;exitDx=0;exitDy=0;entryX=0.5;entryY=0;entryDx=0;entryDy=0;fontSize=13;" parent="1" source="__wWAyPd4UwDDS3I6Whu-4" target="__wWAyPd4UwDDS3I6Whu-7" edge="1">
          <mxGeometry width="50" height="50" relative="1" as="geometry">
            <mxPoint x="620" y="333" as="sourcePoint" />
            <mxPoint x="670" y="283" as="targetPoint" />
            <Array as="points">
              <mxPoint x="530" y="403" />
            </Array>
          </mxGeometry>
        </mxCell>
        <mxCell id="__wWAyPd4UwDDS3I6Whu-17" value="Chuyển hướng&amp;nbsp;&lt;br style=&quot;font-size: 13px;&quot;&gt;trang chủ" style="rounded=0;whiteSpace=wrap;html=1;fontSize=13;" parent="1" vertex="1">
          <mxGeometry x="361.25" y="533" width="108.75" height="50" as="geometry" />
        </mxCell>
        <mxCell id="__wWAyPd4UwDDS3I6Whu-18" value="Thông báo đăng&amp;nbsp;&lt;br style=&quot;font-size: 13px;&quot;&gt;nhập không thành công" style="rounded=0;whiteSpace=wrap;html=1;fontSize=13;" parent="1" vertex="1">
          <mxGeometry x="630" y="533" width="110" height="50" as="geometry" />
        </mxCell>
        <mxCell id="__wWAyPd4UwDDS3I6Whu-19" value="" style="endArrow=classic;html=1;rounded=0;exitX=1;exitY=0.5;exitDx=0;exitDy=0;entryX=0.36;entryY=0.03;entryDx=0;entryDy=0;fontSize=13;entryPerimeter=0;" parent="1" source="__wWAyPd4UwDDS3I6Whu-7" target="__wWAyPd4UwDDS3I6Whu-18" edge="1">
          <mxGeometry width="50" height="50" relative="1" as="geometry">
            <mxPoint x="710" y="453" as="sourcePoint" />
            <mxPoint x="760" y="403" as="targetPoint" />
            <Array as="points">
              <mxPoint x="670" y="488" />
            </Array>
          </mxGeometry>
        </mxCell>
        <mxCell id="__wWAyPd4UwDDS3I6Whu-20" value="" style="ellipse;whiteSpace=wrap;html=1;aspect=fixed;fontSize=13;" parent="1" vertex="1">
          <mxGeometry x="316.25" y="603" width="40" height="40" as="geometry" />
        </mxCell>
        <mxCell id="__wWAyPd4UwDDS3I6Whu-22" value="Đúng" style="text;html=1;strokeColor=none;fillColor=none;align=center;verticalAlign=middle;whiteSpace=wrap;rounded=0;fontSize=13;" parent="1" vertex="1">
          <mxGeometry x="410" y="453" width="60" height="30" as="geometry" />
        </mxCell>
        <mxCell id="__wWAyPd4UwDDS3I6Whu-23" value="Sai" style="text;html=1;strokeColor=none;fillColor=none;align=center;verticalAlign=middle;whiteSpace=wrap;rounded=0;fontSize=13;" parent="1" vertex="1">
          <mxGeometry x="620" y="453" width="60" height="30" as="geometry" />
        </mxCell>
        <mxCell id="__wWAyPd4UwDDS3I6Whu-27" value="Kết thúc" style="ellipse;whiteSpace=wrap;html=1;fontSize=13;" parent="1" vertex="1">
          <mxGeometry x="276.25" y="688" width="120" height="50" as="geometry" />
        </mxCell>
        <mxCell id="__wWAyPd4UwDDS3I6Whu-28" value="" style="endArrow=classic;html=1;rounded=0;exitX=0.5;exitY=1;exitDx=0;exitDy=0;entryX=0.5;entryY=0;entryDx=0;entryDy=0;fontSize=13;" parent="1" source="__wWAyPd4UwDDS3I6Whu-20" target="__wWAyPd4UwDDS3I6Whu-27" edge="1">
          <mxGeometry width="50" height="50" relative="1" as="geometry">
            <mxPoint x="470" y="853" as="sourcePoint" />
            <mxPoint x="520" y="803" as="targetPoint" />
          </mxGeometry>
        </mxCell>
        <mxCell id="__wWAyPd4UwDDS3I6Whu-30" value="" style="endArrow=classic;html=1;rounded=0;exitX=0;exitY=0.5;exitDx=0;exitDy=0;entryX=0.438;entryY=-0.064;entryDx=0;entryDy=0;entryPerimeter=0;fontSize=13;" parent="1" source="__wWAyPd4UwDDS3I6Whu-7" target="__wWAyPd4UwDDS3I6Whu-17" edge="1">
          <mxGeometry width="50" height="50" relative="1" as="geometry">
            <mxPoint x="380" y="533" as="sourcePoint" />
            <mxPoint x="430" y="483" as="targetPoint" />
            <Array as="points">
              <mxPoint x="409" y="488" />
            </Array>
          </mxGeometry>
        </mxCell>
        <mxCell id="__wWAyPd4UwDDS3I6Whu-31" value="" style="endArrow=classic;html=1;rounded=0;exitX=0.5;exitY=1;exitDx=0;exitDy=0;entryX=0;entryY=0.5;entryDx=0;entryDy=0;fontSize=13;" parent="1" source="__wWAyPd4UwDDS3I6Whu-10" target="__wWAyPd4UwDDS3I6Whu-20" edge="1">
          <mxGeometry width="50" height="50" relative="1" as="geometry">
            <mxPoint x="200" y="563" as="sourcePoint" />
            <mxPoint x="250" y="513" as="targetPoint" />
            <Array as="points">
              <mxPoint x="170" y="623" />
            </Array>
          </mxGeometry>
        </mxCell>
        <mxCell id="__wWAyPd4UwDDS3I6Whu-33" value="" style="endArrow=classic;html=1;rounded=0;entryX=0.434;entryY=-0.056;entryDx=0;entryDy=0;entryPerimeter=0;exitX=0.002;exitY=0.446;exitDx=0;exitDy=0;exitPerimeter=0;fontSize=13;" parent="1" source="__wWAyPd4UwDDS3I6Whu-17" target="__wWAyPd4UwDDS3I6Whu-20" edge="1">
          <mxGeometry width="50" height="50" relative="1" as="geometry">
            <mxPoint x="300" y="563" as="sourcePoint" />
            <mxPoint x="350" y="513" as="targetPoint" />
            <Array as="points">
              <mxPoint x="334" y="555" />
            </Array>
          </mxGeometry>
        </mxCell>
        <mxCell id="__wWAyPd4UwDDS3I6Whu-34" value="" style="endArrow=classic;html=1;rounded=0;entryX=1;entryY=0.5;entryDx=0;entryDy=0;exitX=0.545;exitY=1.024;exitDx=0;exitDy=0;exitPerimeter=0;fontSize=13;" parent="1" source="__wWAyPd4UwDDS3I6Whu-18" target="__wWAyPd4UwDDS3I6Whu-20" edge="1">
          <mxGeometry width="50" height="50" relative="1" as="geometry">
            <mxPoint x="490" y="683" as="sourcePoint" />
            <mxPoint x="540" y="633" as="targetPoint" />
            <Array as="points">
              <mxPoint x="690" y="623" />
            </Array>
          </mxGeometry>
        </mxCell>
        <mxCell id="ANFfwjXlN7epAJEEmb3t-2" value="Đối chiếu CSDL" style="rhombus;whiteSpace=wrap;html=1;fontSize=13;" vertex="1" parent="1">
          <mxGeometry x="260" y="240" width="160" height="80" as="geometry" />
        </mxCell>
        <mxCell id="ANFfwjXlN7epAJEEmb3t-4" value="" style="endArrow=classic;html=1;rounded=0;exitX=0.5;exitY=1;exitDx=0;exitDy=0;entryX=0.5;entryY=0;entryDx=0;entryDy=0;" edge="1" parent="1" source="ANFfwjXlN7epAJEEmb3t-2" target="__wWAyPd4UwDDS3I6Whu-4">
          <mxGeometry width="50" height="50" relative="1" as="geometry">
            <mxPoint x="400" y="350" as="sourcePoint" />
            <mxPoint x="450" y="300" as="targetPoint" />
          </mxGeometry>
        </mxCell>
        <mxCell id="ANFfwjXlN7epAJEEmb3t-5" value="" style="endArrow=classic;html=1;rounded=0;exitX=1;exitY=0.5;exitDx=0;exitDy=0;entryX=0.631;entryY=0.023;entryDx=0;entryDy=0;entryPerimeter=0;" edge="1" parent="1" source="ANFfwjXlN7epAJEEmb3t-2" target="__wWAyPd4UwDDS3I6Whu-18">
          <mxGeometry width="50" height="50" relative="1" as="geometry">
            <mxPoint x="530" y="270" as="sourcePoint" />
            <mxPoint x="700" y="530" as="targetPoint" />
            <Array as="points">
              <mxPoint x="700" y="280" />
            </Array>
          </mxGeometry>
        </mxCell>
        <mxCell id="ANFfwjXlN7epAJEEmb3t-6" value="Sai" style="text;html=1;strokeColor=none;fillColor=none;align=center;verticalAlign=middle;whiteSpace=wrap;rounded=0;fontSize=13;" vertex="1" parent="1">
          <mxGeometry x="540" y="250" width="60" height="30" as="geometry" />
        </mxCell>
      </root>
    </mxGraphModel>
  </diagram>
</mxfile>
